# xmcd
#
# Track frame offsets:
#	150
#	18655
#	36448
#	54620
#	69946
#	78963
#	94922
#	115062
#	127961
#	139637
#	150882
#	164604
#	173142
#	189495
#	203458
#	214631
#	228192
#
# Disc length: 3182 seconds
#
# Revision: 0
# Processed by: cddbd v1.5.1PL0 Copyright (c) Steve Scherf et al.
# Submitted via: dBpowerAMP V4.0
#
DISCID=d70c6c11
DTITLE=Marc et Gérald - M&G- Our favorite ballads
DYEAR=1900
DGENRE=
TTITLE0=This land is my land
TTITLE1=Rambling Boy
TTITLE2=You are my sunshine
TTITLE3=Jackhammer man
TTITLE4=Cindy
TTITLE5=Freight train
TTITLE6=The last thing on my mind
TTITLE7=I cant't help but wonder where I'm bound
TTITLE8=Many a mile
TTITLE9=Brandy leave me alone
TTITLE10=Drill ye tarriers drill
TTITLE11=No more auction block for me
TTITLE12=Rangers command
TTITLE13=Dust bowl refugee
TTITLE14=Balld of the boll weevill
TTITLE15=Me and Bobby McGee
TTITLE16=I ride an old paint
EXTD=Album sold at "Exploration du Monde" conferences
EXTT0=
EXTT1=
EXTT2=
EXTT3=
EXTT4=
EXTT5=
EXTT6=
EXTT7=
EXTT8=
EXTT9=
EXTT10=
EXTT11=
EXTT12=
EXTT13=
EXTT14=
EXTT15=
EXTT16=
PLAYORDER=
